<?xml version="1.0" standalone="no"?>
<!DOCTYPE svg PUBLIC "-//W3C//DTD SVG 20010904//EN"
 "http://www.w3.org/TR/2001/REC-SVG-20010904/DTD/svg10.dtd">
<svg version="1.0" xmlns="http://www.w3.org/2000/svg"
 width="700.000000pt" height="700.000000pt" viewBox="0 0 700.000000 700.000000"
 preserveAspectRatio="xMidYMid meet">
<metadata>
Created by potrace 1.11, written by Peter Selinger 2001-2013
</metadata>
<g transform="translate(0.000000,700.000000) scale(0.100000,-0.100000)"
fill="#000000" stroke="none">
<path d="M1840 4053 c-156 -885 -285 -1614 -288 -1621 -3 -10 84 -12 429 -10
l434 3 92 600 c50 330 92 601 92 603 1 1 65 2 144 2 l142 0 49 -160 49 -161
-11 -72 c-6 -40 -44 -250 -83 -467 l-72 -395 0 -200 c-1 -230 12 -297 83 -441
140 -286 520 -425 1090 -399 434 19 732 125 959 340 182 172 293 390 350 688
12 59 21 117 21 128 0 19 -10 19 -403 19 l-403 0 -17 -72 c-67 -279 -250 -419
-532 -405 -157 7 -247 54 -290 151 -27 58 -40 149 -31 201 l7 35 258 2 258 3
-169 540 -169 540 17 60 c71 264 250 405 512 405 154 0 243 -48 302 -164 33
-65 35 -75 39 -187 5 -178 -31 -331 -104 -439 l-34 -50 398 0 398 0 45 93
c105 213 150 397 150 612 0 109 -5 158 -21 220 -67 258 -251 450 -518 541
-162 55 -259 68 -512 68 l-223 1 5 45 c4 25 13 90 21 145 40 257 -4 431 -148
583 -107 113 -262 181 -481 211 -48 7 -346 11 -814 11 l-737 0 -284 -1607z
m1352 908 c161 -21 236 -106 258 -289 24 -217 -64 -400 -225 -463 -56 -22 -77
-23 -299 -27 l-239 -4 6 29 c2 15 28 188 57 383 28 195 53 361 56 368 4 14
278 17 386 3z"/>
</g>
</svg>
