<svg xmlns="http://www.w3.org/2000/svg" xmlns:xlink="http://www.w3.org/1999/xlink" style="isolation:isolate" viewBox="181.76 73.927 43.439 42.366" width="43.439" height="42.366"><path d=" M 203.477 73.927 C 191.485 73.927 181.76 83.651 181.76 95.647 C 181.76 105.241 187.983 113.383 196.613 116.256 C 197.7 116.455 198.096 115.784 198.096 115.208 C 198.096 114.692 198.077 113.327 198.067 111.515 C 192.025 112.827 190.751 108.603 190.751 108.603 C 189.763 106.093 188.339 105.425 188.339 105.425 C 186.367 104.079 188.488 104.105 188.488 104.105 C 190.668 104.259 191.815 106.344 191.815 106.344 C 193.752 109.663 196.899 108.704 198.136 108.148 C 198.333 106.745 198.895 105.788 199.515 105.245 C 194.692 104.696 189.621 102.833 189.621 94.511 C 189.621 92.139 190.468 90.201 191.857 88.683 C 191.633 88.133 190.888 85.925 192.071 82.935 C 192.071 82.935 193.893 82.351 198.043 85.16 C 199.775 84.679 201.633 84.439 203.48 84.429 C 205.325 84.439 207.183 84.679 208.917 85.16 C 213.064 82.351 214.884 82.935 214.884 82.935 C 216.069 85.925 215.324 88.133 215.101 88.683 C 216.493 90.201 217.333 92.139 217.333 94.511 C 217.333 102.855 212.255 104.691 207.417 105.228 C 208.196 105.899 208.891 107.224 208.891 109.251 C 208.891 112.153 208.864 114.496 208.864 115.208 C 208.864 115.789 209.256 116.465 210.357 116.253 C 218.981 113.375 225.199 105.24 225.199 95.647 C 225.199 83.651 215.473 73.927 203.477 73.927" fill-rule="evenodd" fill="rgb(27,24,23)"/></svg>
